:SAMPLES-PER-SECOND 30
:FULLY-SPECIFIED
:DEGREES
583
root  60.936 35.9928 88.8228 28.3088 75.4923 14.6461
LeftUpLeg  -16.4267 10.7496 6.27505
LeftLeg  5.08268 1.77756 0.0428789
LeftFoot  23.1634 -0.127205 0.620688
LeftToes  -33.2367 1.61378e-006 8.80029e-008
Spine  4.40747 2.89743 -1.15914
Spine1  7.75598 6.98969 -4.6477
RightShoulder  0.0424324 5.95935 -12.5669
RightArm  -75.9905 5.76761 -0.502254
RightForeArm  9.18138 21.439 3.96164
RightHand  -1.22474 -8.66578 16.4169
LeftShoulder1  0.000149383 -2.68923 -5.65045
LeftArm  -36.7728 17.1954 -61.8009
LeftForeArm  32.572 -18.7463 -3.42107
LeftHand  0.0490393 1.13767 4.53857
HEad  -0.81436 -54.109 -0.940911
RightUpLeg  -15.852 -15.6171 -0.00747823
RightLeg  2.18675 10.297 -0.265136
RightFoot  8.55546 -0.0708432 1.43881
RightToes  -24.0794 -0.104389 -0.20783
584
root  60.868 36.0184 88.9399 29.2507 76.0136 15.7251
LeftUpLeg  -15.5426 9.71745 6.89627
LeftLeg  5.63036 1.58452 0.0532543
LeftFoot  22.7359 -0.112981 0.561931
LeftToes  -34.2678 1.61378e-006 8.80029e-008
Spine  4.4224 2.9483 -1.30345
Spine1  7.7516 7.15219 -4.7567
RightShoulder  0.0497874 5.95031 -12.3155
RightArm  -76.8478 6.99747 1.46071
RightForeArm  8.51518 23.1208 4.30811
RightHand  -1.18959 -8.39641 16.4572
LeftShoulder1  0.000252392 -2.79795 -5.52152
LeftArm  -36.7541 16.8482 -62.0294
LeftForeArm  32.6738 -18.7586 -3.42343
LeftHand  0.0447769 1.04031 4.60322
HEad  0.591514 -54.4461 -2.32585
RightUpLeg  -16.1303 -16.8802 0.267159
RightLeg  2.92011 11.217 -0.145505
RightFoot  8.27906 -0.0779971 1.54669
RightToes  -23.512 -0.101889 -0.204716
585
root  60.7974 36.0465 89.0177 30.6782 76.6337 17.2168
LeftUpLeg  -14.945 8.38785 7.60508
LeftLeg  6.58478 0.67453 0.0334466
LeftFoot  22.2281 -0.0461488 0.234908
LeftToes  -34.3165 1.61378e-006 8.80029e-008
Spine  4.37136 2.97207 -1.53346
Spine1  7.70301 7.13678 -4.93939
RightShoulder  0.0527264 5.72436 -12.0632
RightArm  -74.0654 7.42456 3.5187
RightForeArm  5.39195 26.2074 4.96653
RightHand  -1.2366 -9.4811 15.1888
LeftShoulder1  0.000367385 -2.79944 -5.42712
LeftArm  -36.6372 16.2951 -62.0847
LeftForeArm  32.9796 -19.0423 -3.47909
LeftHand  0.0408093 0.918585 4.68204
HEad  1.70227 -54.8992 -3.42014
RightUpLeg  -16.3217 -17.9473 0.424202
RightLeg  3.2651 11.7506 -0.0819088
RightFoot  8.27339 -0.0849237 1.65135
RightToes  -23.0558 -0.0991407 -0.200926
586
root  60.7292 36.0789 89.0714 32.474 77.259 19.025
LeftUpLeg  -14.7081 7.34465 8.28196
LeftLeg  7.96962 -0.646756 -0.0494093
LeftFoot  21.6867 0.0459728 -0.24002
LeftToes  -34.3576 1.61378e-006 8.80029e-008
Spine  4.30414 3.05477 -1.71767
Spine1  7.6073 7.23305 -5.18112
RightShoulder  0.052923 5.80181 -11.9338
RightArm  -72.7035 7.76975 5.19975
RightForeArm  4.4067 28.3241 5.44006
RightHand  -1.25822 -9.82794 14.9165
LeftShoulder1  0.000465716 -2.85872 -5.35222
LeftArm  -36.5506 15.6917 -62.0058
LeftForeArm  33.1082 -19.4069 -3.55111
LeftHand  0.0405887 0.888108 4.82567
HEad  2.85324 -54.3771 -4.54444
RightUpLeg  -16.4425 -18.642 0.502459
RightLeg  3.33274 11.7016 -0.0678461
RightFoot  8.44715 -0.0881324 1.69884
RightToes  -22.3749 -0.0948956 -0.195637
587
root  60.6546 36.1111 89.0964 35.4542 77.9736 22.0429
LeftUpLeg  -14.541 6.40156 8.79544
LeftLeg  9.15362 -1.77773 -0.171323
LeftFoot  21.5797 0.122014 -0.640242
LeftToes  -33.9983 1.61378e-006 8.80029e-008
Spine  4.23771 3.13965 -1.96118
Spine1  7.48114 7.36314 -5.56605
RightShoulder  0.0537192 5.9605 -11.9113
RightArm  -72.0253 8.34263 6.75325
RightForeArm  4.44714 29.699 5.75891
RightHand  -1.29617 -10.1821 14.8327
LeftShoulder1  0.000518738 -2.84171 -5.15174
LeftArm  -36.4496 14.9444 -61.9407
LeftForeArm  33.0754 -19.7077 -3.61089
LeftHand  0.0388782 0.835191 4.99676
HEad  3.99923 -54.7242 -5.1183
RightUpLeg  -16.4601 -18.593 0.233493
RightLeg  3.29701 10.6175 -0.0683749
RightFoot  8.59247 -0.0801273 1.57307
RightToes  -21.7109 -0.0911999 -0.190434
588
root  60.5809 36.1402 89.0949 39.5005 78.9292 26.1663
LeftUpLeg  -14.3888 5.68358 9.25605
LeftLeg  9.99399 -2.27825 -0.253098
LeftFoot  22.0955 0.162584 -0.83271
LeftToes  -33.3906 1.61378e-006 8.80029e-008
Spine  4.18814 3.22001 -2.1837
Spine1  7.37852 7.49124 -5.94179
RightShoulder  0.0547801 6.1369 -11.9985
RightArm  -71.6446 8.69329 8.25388
RightForeArm  4.93157 30.703 5.998
RightHand  -1.31944 -10.345 14.8592
LeftShoulder1  0.000497805 -2.8909 -4.78217
LeftArm  -36.5453 14.1526 -62.07
LeftForeArm  33.0775 -19.9538 -3.65995
LeftHand  0.0383923 0.784887 5.18479
HEad  5.42839 -54.651 -5.63238
RightUpLeg  -16.4377 -18.3868 -0.193083
RightLeg  3.37997 9.16733 -0.0460339
RightFoot  8.73978 -0.0678264 1.38157
RightToes  -21.7951 -0.0891667 -0.187734
589
root  60.517 36.1634 89.0764 44.8567 80.1976 31.5642
LeftUpLeg  -14.3055 5.21667 9.76624
LeftLeg  10.4463 -1.98822 -0.23699
LeftFoot  23.0682 0.152239 -0.746005
LeftToes  -32.8442 1.61378e-006 8.80029e-008
Spine  4.17652 3.29224 -2.28238
Spine1  7.33893 7.6266 -6.1305
RightShoulder  0.0558934 6.24182 -11.9347
RightArm  -71.6053 8.90135 9.2398
RightForeArm  4.91847 31.1128 6.09683
RightHand  -1.33317 -10.6927 14.5351
LeftShoulder1  0.000473363 -2.92618 -4.51808
LeftArm  -36.3814 13.3353 -62.2529
LeftForeArm  32.798 -20.1949 -3.70838
LeftHand  0.0396806 0.811049 5.1874
HEad  6.79617 -54.8101 -5.93172
RightUpLeg  -16.4012 -18.6016 -0.485854
RightLeg  3.48064 7.86086 -0.0258059
RightFoot  8.81239 -0.0556654 1.19337
RightToes  -21.9882 -0.0875993 -0.185618
590
root  60.4592 36.1748 89.0447 52.6421 81.6141 39.3561
LeftUpLeg  -14.4101 5.095 10.2178
LeftLeg  10.8232 -1.08532 -0.137223
LeftFoot  24.1883 0.0863198 -0.402854
LeftToes  -31.556 1.61378e-006 8.80029e-008
Spine  4.18114 3.30041 -2.35702
Spine1  7.34481 7.63112 -6.26096
RightShoulder  0.0573007 6.0923 -11.9828
RightArm  -71.8757 9.21858 10.1021
RightForeArm  5.49955 31.5649 6.20757
RightHand  -1.34124 -10.9606 14.2732
LeftShoulder1  0.000530156 -3.01349 -4.28751
LeftArm  -36.0403 12.8013 -62.3915
LeftForeArm  32.4931 -20.6835 -3.8068
LeftHand  0.0360277 0.798542 5.15477
HEad  7.55994 -54.8797 -5.92678
RightUpLeg  -16.3751 -19.0472 -0.697814
RightLeg  3.60992 6.49025 -0.00670563
RightFoot  8.80546 -0.0419945 0.983083
RightToes  -22.3397 -0.0865148 -0.184125
591
root  60.4002 36.1739 89.0096 62.2344 82.8487 48.9178
LeftUpLeg  -14.5215 5.5617 10.5728
LeftLeg  10.99 0.464758 0.0583326
LeftFoot  25.045 -0.0552014 0.248526
LeftToes  -30.4613 1.61378e-006 8.80029e-008
Spine  4.17765 3.26174 -2.46724
Spine1  7.34202 7.53794 -6.42977
RightShoulder  0.0586413 6.09246 -11.948
RightArm  -72.1594 9.70326 10.7229
RightForeArm  6.3267 32.1163 6.34425
RightHand  -1.31434 -11.3368 13.5463
LeftShoulder1  0.000660985 -3.06943 -4.1034
LeftArm  -35.9933 12.526 -62.3851
LeftForeArm  32.3245 -21.0228 -3.87551
LeftHand  0.0328515 0.656611 5.26319
HEad  7.77354 -54.515 -5.37239
RightUpLeg  -16.2986 -19.3473 -0.761964
RightLeg  3.53964 4.92653 -0.0110683
RightFoot  8.81196 -0.0264884 0.745851
RightToes  -22.2977 -0.0859301 -0.183293
592
root  60.3744 36.1515 88.9381 74.1143 83.958 60.7357
LeftUpLeg  -14.5165 6.22154 10.858
LeftLeg  10.8797 2.6467 0.332879
LeftFoot  24.9322 -0.25978 1.17503
LeftToes  -29.308 1.61378e-006 8.80029e-008
Spine  4.16919 3.09521 -2.61821
Spine1  7.35444 7.17143 -6.64631
RightShoulder  0.0602473 5.936 -12.1473
RightArm  -72.5459 10.5542 12.1003
RightForeArm  7.08242 33.3599 6.65762
RightHand  -1.33025 -11.9064 13.0679
LeftShoulder1  0.00085865 -3.2255 -3.86951
LeftArm  -36.2656 12.7461 -62.2334
LeftForeArm  32.3269 -21.4702 -3.96643
LeftHand  0.0347159 0.660931 5.58475
HEad  7.5676 -53.7701 -4.52162
RightUpLeg  -16.1259 -20.2037 -0.559497
RightLeg  3.21127 3.8618 -0.030741
RightFoot  8.73344 -0.015502 0.58051
RightToes  -21.8549 -0.0858623 -0.183161
593
root  60.3456 36.1134 88.8538 83.7312 84.7978 70.2601
LeftUpLeg  -14.2781 6.88759 11.1454
LeftLeg  10.4591 5.62025 0.665612
LeftFoot  24.5451 -0.52398 2.40839
LeftToes  -27.3494 1.61378e-006 8.80029e-008
Spine  4.12348 3.04289 -2.80445
Spine1  7.26871 7.03375 -6.94022
RightShoulder  0.0618422 5.71636 -12.3336
RightArm  -72.177 11.6616 13.6157
RightForeArm  7.48645 34.8526 7.04568
RightHand  -1.4027 -12.523 13.0956
LeftShoulder1  0.00111595 -3.26534 -3.59596
LeftArm  -36.9437 12.9976 -62.0955
LeftForeArm  32.8753 -21.4191 -3.95562
LeftHand  0.037284 0.613383 5.7279
HEad  7.37588 -52.7523 -3.69321
RightUpLeg  -16.1749 -20.502 -0.189848
RightLeg  3.21149 2.86142 -0.0226049
RightFoot  8.54782 -0.00493984 0.423179
RightToes  -21.4774 -0.0863282 -0.183767
594
root  60.3128 36.0656 88.7333 98.0832 85.68 84.5766
LeftUpLeg  -14.0792 7.15168 11.3895
LeftLeg  9.97947 9.10111 0.998942
LeftFoot  24.6684 -0.854807 3.90783
LeftToes  -25.8146 1.61378e-006 8.80029e-008
Spine  4.11016 2.9323 -2.94451
Spine1  7.24414 6.79385 -7.17396
RightShoulder  0.0636127 5.21274 -12.6936
RightArm  -72.4523 13.1967 15.8756
RightForeArm  7.86963 36.0942 7.37977
RightHand  -1.52322 -12.9375 13.7372
LeftShoulder1  0.00142569 -3.39673 -3.27987
LeftArm  -38.1767 13.225 -62.1224
LeftForeArm  33.4604 -20.9962 -3.86927
LeftHand  0.0438752 0.525328 5.96995
HEad  7.38895 -51.7611 -2.77662
RightUpLeg  -16.365 -21.0448 0.352095
RightLeg  3.63082 2.026 -0.000877604
RightFoot  8.21073 0.00411557 0.291106
RightToes  -21.0423 -0.0873448 -0.185149
595
root  60.2731 36.0101 88.573 120.893 86.3842 107.364
LeftUpLeg  -14.1636 7.7644 11.4859
LeftLeg  9.73873 12.0463 1.26751
LeftFoot  25.9292 -1.25309 5.43921
LeftToes  -26.1564 1.61378e-006 8.80029e-008
Spine  4.11585 2.78427 -3.03567
Spine1  7.27237 6.46911 -7.30605
RightShoulder  0.0653192 4.5789 -13.0711
RightArm  -72.6626 14.732 18.628
RightForeArm  8.62576 37.5858 7.79616
RightHand  -1.66301 -13.3065 14.5481
LeftShoulder1  0.00178066 -3.49332 -2.98862
LeftArm  -39.1105 13.4241 -62.3052
LeftForeArm  33.624 -20.6142 -3.79198
LeftHand  0.0537786 0.687546 6.3533
HEad  7.60226 -50.7799 -1.63309
RightUpLeg  -16.4124 -21.181 0.942607
RightLeg  3.86301 0.79907 0.00349772
RightFoot  8.17058 0.0160884 0.116972
RightToes  -21.5887 -0.0904908 -0.189471
596
root  60.2415 35.9386 88.3512 156.162 86.5817 142.596
LeftUpLeg  -14.6745 9.4374 11.5459
LeftLeg  10.0897 13.7787 1.53108
LeftFoot  25.5944 -1.40386 6.17484
LeftToes  -29.0025 1.61378e-006 8.80029e-008
Spine  4.14788 2.65196 -2.9152
Spine1  7.35873 6.20221 -7.07643
RightShoulder  0.0668548 3.93315 -13.444
RightArm  -73.0875 16.291 21.2153
RightForeArm  9.7846 38.419 8.03708
RightHand  -1.76391 -13.4285 15.2627
LeftShoulder1  0.00217367 -3.49733 -2.71927
LeftArm  -39.4417 13.6911 -62.8631
LeftForeArm  33.6673 -20.7692 -3.82321
LeftHand  0.0579029 0.791382 6.53108
HEad  7.70056 -49.6983 -0.520915
RightUpLeg  -16.469 -22.0133 2.03663
RightLeg  4.03786 0.410709 0.00356744
RightFoot  8.32587 0.0204054 0.0662892
RightToes  -22.7638 -0.0973954 -0.198664
597
root  60.2001 35.8593 88.0366 -177.786 85.4848 168.706
LeftUpLeg  -15.1413 11.264 10.8841
LeftLeg  9.74729 16.3287 1.71011
LeftFoot  22.8284 -1.33537 6.60717
LeftToes  -26.9897 1.61378e-006 8.80029e-008
Spine  4.15156 2.54597 -2.86407
Spine1  7.38182 5.98575 -6.97379
RightShoulder  0.0682097 3.24142 -13.7803
RightArm  -72.7725 17.4931 23.8043
RightForeArm  10.154 38.8676 8.16891
RightHand  -1.79843 -13.8227 15.1189
LeftShoulder1  0.00259752 -3.57344 -2.46098
LeftArm  -39.0699 13.9974 -63.4023
LeftForeArm  33.812 -20.926 -3.85478
LeftHand  0.0502226 0.852818 6.31895
HEad  8.31527 -48.7757 0.211105
RightUpLeg  -16.7684 -23.5698 2.88066
RightLeg  4.84661 0.65066 0.0143644
RightFoot  8.11864 0.0194203 0.103889
RightToes  -23.5946 -0.102391 -0.205077
